<?xml version="1.0" standalone="no"?>
<!DOCTYPE svg PUBLIC "-//W3C//DTD SVG 20010904//EN"
 "http://www.w3.org/TR/2001/REC-SVG-20010904/DTD/svg10.dtd">
<svg version="1.0" xmlns="http://www.w3.org/2000/svg"
 width="32.000000pt" height="32.000000pt" viewBox="0 0 32.000000 32.000000"
 preserveAspectRatio="xMidYMid meet">
<metadata>
Created by potrace 1.10, written by Peter Selinger 2001-2011
</metadata>
<g transform="translate(0.000000,32.000000) scale(0.100000,-0.100000)"
fill="#000000" stroke="none">
<path d="M112 313 c-33 -6 -99 -75 -107 -112 -12 -56 4 -110 45 -151 65 -65
155 -65 220 0 65 65 65 155 0 220 -44 44 -88 56 -158 43z m98 -63 c24 -24 25
-34 6 -49 -12 -10 -12 -16 1 -40 23 -40 11 -79 -32 -97 -61 -25 -108 9 -89 65
13 36 38 34 39 -4 0 -23 5 -30 20 -30 30 0 30 31 1 66 -32 38 -33 73 -4 93 29
20 34 20 58 -4z"/>
<path d="M166 232 c-2 -4 -1 -14 4 -22 7 -11 12 -12 21 -3 6 6 8 16 5 22 -8
13 -23 14 -30 3z"/>
</g>
</svg>
